{
  "accessors": [
    {
      "bufferView": 2,
      "componentType": 5126,
      "count": 65532,
      "max": [
        0.17383764684200287,
        0.10804664343595505,
        0.42259731888771057
      ],
      "min": [
        -0.25877392292022705,
        -0.10804664343595505,
        -0.05567553639411926
      ],
      "type": "VEC3"
    },
    {
      "bufferView": 2,
      "byteOffset": 786384,
      "componentType": 5126,
      "count": 65532,
      "max": [
        0.9999865889549255,
        0.9999998807907104,
        0.9999973773956299
      ],
      "min": [
        -0.9999995231628418,
        -0.9990745782852173,
        -0.9999962449073792
      ],
      "type": "VEC3"
    },
    {
      "bufferView": 1,
      "componentType": 5126,
      "count": 65532,
      "max": [
        0.9999943375587463,
        0.9976826906204224
      ],
      "min": [
        5.945441444055177e-05,
        4.375009302748367e-05
      ],
      "type": "VEC2"
    },
    {
      "bufferView": 1,
      "byteOffset": 524256,
      "componentType": 5126,
      "count": 65532,
      "max": [
        0.9999943375587463,
        0.9976826906204224
      ],
      "min": [
        5.945441444055177e-05,
        4.375009302748367e-05
      ],
      "type": "VEC2"
    },
    {
      "bufferView": 1,
      "byteOffset": 1048512,
      "componentType": 5126,
      "count": 65532,
      "max": [
        0.9999943375587463,
        0.9976826906204224
      ],
      "min": [
        5.945441444055177e-05,
        4.375009302748367e-05
      ],
      "type": "VEC2"
    },
    {
      "bufferView": 1,
      "byteOffset": 1572768,
      "componentType": 5126,
      "count": 65532,
      "max": [
        0.9999943375587463,
        0.9976826906204224
      ],
      "min": [
        5.945441444055177e-05,
        4.375009302748367e-05
      ],
      "type": "VEC2"
    },
    {
      "bufferView": 1,
      "byteOffset": 2097024,
      "componentType": 5126,
      "count": 65532,
      "max": [
        0.9999943375587463,
        0.9976826906204224
      ],
      "min": [
        5.945441444055177e-05,
        4.375009302748367e-05
      ],
      "type": "VEC2"
    },
    {
      "bufferView": 0,
      "componentType": 5125,
      "count": 321441,
      "type": "SCALAR"
    },
    {
      "bufferView": 2,
      "byteOffset": 1572768,
      "componentType": 5126,
      "count": 24754,
      "max": [
        0.17375868558883667,
        0.10784050822257996,
        0.41843023896217346
      ],
      "min": [
        -0.24962720274925232,
        -0.09765146672725677,
        -0.055315885692834854
      ],
      "type": "VEC3"
    },
    {
      "bufferView": 2,
      "byteOffset": 1869816,
      "componentType": 5126,
      "count": 24754,
      "max": [
        0.9999883770942688,
        0.9999995231628418,
        0.999973714351654
      ],
      "min": [
        -0.9999932646751404,
        -0.9952263832092285,
        -0.9998950362205505
      ],
      "type": "VEC3"
    },
    {
      "bufferView": 1,
      "byteOffset": 2621280,
      "componentType": 5126,
      "count": 24754,
      "max": [
        0.9969565868377686,
        0.9976927638053894
      ],
      "min": [
        0.02505483850836754,
        3.5021053918171674e-05
      ],
      "type": "VEC2"
    },
    {
      "bufferView": 1,
      "byteOffset": 2819312,
      "componentType": 5126,
      "count": 24754,
      "max": [
        0.9969565868377686,
        0.9976927638053894
      ],
      "min": [
        0.02505483850836754,
        3.5021053918171674e-05
      ],
      "type": "VEC2"
    },
    {
      "bufferView": 1,
      "byteOffset": 3017344,
      "componentType": 5126,
      "count": 24754,
      "max": [
        0.9969565868377686,
        0.9976927638053894
      ],
      "min": [
        0.02505483850836754,
        3.5021053918171674e-05
      ],
      "type": "VEC2"
    },
    {
      "bufferView": 1,
      "byteOffset": 3215376,
      "componentType": 5126,
      "count": 24754,
      "max": [
        0.9969565868377686,
        0.9976927638053894
      ],
      "min": [
        0.02505483850836754,
        3.5021053918171674e-05
      ],
      "type": "VEC2"
    },
    {
      "bufferView": 1,
      "byteOffset": 3413408,
      "componentType": 5126,
      "count": 24754,
      "max": [
        0.9969565868377686,
        0.9976927638053894
      ],
      "min": [
        0.02505483850836754,
        3.5021053918171674e-05
      ],
      "type": "VEC2"
    },
    {
      "bufferView": 0,
      "byteOffset": 1285764,
      "componentType": 5125,
      "count": 126468,
      "type": "SCALAR"
    }
  ],
  "asset": {
    "extras": {
      "author": "cathalmcd (https://sketchfab.com/cathalmcd)",
      "license": "CC-BY-NC-SA-4.0 (http://creativecommons.org/licenses/by-nc-sa/4.0/)",
      "source": "https://sketchfab.com/3d-models/inside-a-pc-ef5d85eefc9e40f09e171b6d6746a3de",
      "title": "Inside a pc"
    },
    "generator": "Sketchfab-12.65.0",
    "version": "2.0"
  },
  "bufferViews": [
    {
      "buffer": 0,
      "byteLength": 1791636,
      "name": "floatBufferViews",
      "target": 34963
    },
    {
      "buffer": 0,
      "byteLength": 3611440,
      "byteOffset": 1791636,
      "byteStride": 8,
      "name": "floatBufferViews",
      "target": 34962
    },
    {
      "buffer": 0,
      "byteLength": 2166864,
      "byteOffset": 5403076,
      "byteStride": 12,
      "name": "floatBufferViews",
      "target": 34962
    }
  ],
  "buffers": [
    {
      "byteLength": 7569940,
      "uri": "scene.bin"
    }
  ],
  "extensionsUsed": [
    "KHR_materials_unlit"
  ],
  "images": [
    {
      "uri": "textures/material_0_baseColor.jpeg"
    }
  ],
  "materials": [
    {
      "extensions": {
        "KHR_materials_unlit": {}
      },
      "name": "material_0",
      "pbrMetallicRoughness": {
        "baseColorTexture": {
          "index": 0
        },
        "metallicFactor": 0.0
      }
    }
  ],
  "meshes": [
    {
      "name": "Object_0",
      "primitives": [
        {
          "attributes": {
            "NORMAL": 1,
            "POSITION": 0,
            "TEXCOORD_0": 2,
            "TEXCOORD_1": 3,
            "TEXCOORD_2": 4,
            "TEXCOORD_3": 5,
            "TEXCOORD_4": 6
          },
          "indices": 7,
          "material": 0,
          "mode": 4
        }
      ]
    },
    {
      "name": "Object_1",
      "primitives": [
        {
          "attributes": {
            "NORMAL": 9,
            "POSITION": 8,
            "TEXCOORD_0": 10,
            "TEXCOORD_1": 11,
            "TEXCOORD_2": 12,
            "TEXCOORD_3": 13,
            "TEXCOORD_4": 14
          },
          "indices": 15,
          "material": 0,
          "mode": 4
        }
      ]
    }
  ],
  "nodes": [
    {
      "children": [
        1
      ],
      "matrix": [
        1.0,
        0.0,
        0.0,
        0.0,
        0.0,
        2.220446049250313e-16,
        -1.0,
        0.0,
        0.0,
        1.0,
        2.220446049250313e-16,
        0.0,
        0.0,
        0.0,
        0.0,
        1.0
      ],
      "name": "Sketchfab_model"
    },
    {
      "children": [
        2
      ],
      "name": "root"
    },
    {
      "children": [
        3
      ],
      "matrix": [
        1.0,
        0.0,
        0.0,
        0.0,
        0.0,
        2.220446049250313e-16,
        1.0,
        0.0,
        0.0,
        -1.0,
        2.220446049250313e-16,
        0.0,
        0.0,
        0.0,
        0.0,
        1.0
      ],
      "name": "GLTF_SceneRootNode"
    },
    {
      "children": [
        4,
        5
      ],
      "name": "_0"
    },
    {
      "mesh": 0,
      "name": "Object_4"
    },
    {
      "mesh": 1,
      "name": "Object_5"
    }
  ],
  "samplers": [
    {
      "magFilter": 9729,
      "minFilter": 9987,
      "wrapS": 10497,
      "wrapT": 10497
    }
  ],
  "scene": 0,
  "scenes": [
    {
      "name": "Sketchfab_Scene",
      "nodes": [
        0
      ]
    }
  ],
  "textures": [
    {
      "sampler": 0,
      "source": 0
    }
  ]
}
